<svg id="Capa_1" data-name="Capa 1" xmlns="http://www.w3.org/2000/svg" viewBox="0 0 436.57 215.41"><defs><style>.cls-1{fill:gray;}</style></defs><path class="cls-1" d="M74.54,194h5.24c4.37,0,7.6,1.9,7.6,6.54,0,6.33-3.43,9.76-9.54,9.76H71.29ZM76.05,207h1.77c3.75,0,5.43-3,5.43-6.24,0-2.05-.83-3.62-4.19-3.62H77.93Z"/><path class="cls-1" d="M94.54,198.09,92.2,210.27H88.3l2.33-12.18Zm1-5.08-.61,3.08H91l.68-3.08Z"/><path class="cls-1" d="M105.63,198.64l-.85,2.64a7.4,7.4,0,0,0-3.1-.68c-1.2,0-1.79.42-1.79,1.07s.5.77,1.9,1.31c2.18.83,2.92,1.71,2.92,3,0,2.83-2.18,4.56-5.5,4.56a15.77,15.77,0,0,1-4.37-.64l.79-2.88a7,7,0,0,0,3.12.72c1.38,0,2.18-.37,2.18-1.09s-.67-.94-2-1.44a3.37,3.37,0,0,1-2.59-3.43c0-2.64,2.7-4,5.65-4A11.32,11.32,0,0,1,105.63,198.64Z"/><path class="cls-1" d="M118.18,203a13.94,13.94,0,0,1-.31,2.41H110c0,1.39.72,2.35,3,2.35a8,8,0,0,0,3.52-.85l-.48,3a12.88,12.88,0,0,1-3.93.68,5.3,5.3,0,0,1-5.74-5.68,6.78,6.78,0,0,1,6.49-7.06H113a4.75,4.75,0,0,1,5.15,4.33A4.12,4.12,0,0,1,118.18,203ZM115,203c0-1.35-.48-2.42-1.9-2.42a2.92,2.92,0,0,0-2.84,2.42Z"/><path class="cls-1" d="M132.24,202a14,14,0,0,1-.29,2.58l-1,5.67h-4.06l1.07-5.69a10.55,10.55,0,0,0,.26-1.86,1.31,1.31,0,0,0-1.21-1.4h-.23c-2.18,0-2.79,2.56-2.9,3.13l-1.14,5.82H118.9l1.7-8.73a32.31,32.31,0,0,0,.53-3.38h3.58l-.31,2h0a5.09,5.09,0,0,1,4.37-2.19C131,197.81,132.24,199.53,132.24,202Zm-.33-8.73c-.2,1.92-1.14,3.32-2.77,3.32-1.14,0-2.38-.85-3.06-.85s-.89.3-1,.91h-1.55c.2-1.79,1.1-3.29,2.73-3.29,1.12,0,2.19.83,3.08.83a1,1,0,0,0,1.07-.89v0Z"/><path class="cls-1" d="M146.8,203.29a6.55,6.55,0,0,1-5.76,7.25,6.67,6.67,0,0,1-1.34,0,5.17,5.17,0,0,1-5.8-4.46,5.32,5.32,0,0,1,0-1.13,6.79,6.79,0,0,1,6.4-7.16,5.75,5.75,0,0,1,.83,0,5.28,5.28,0,0,1,5.68,4.85C146.8,202.87,146.8,203.08,146.8,203.29Zm-7,4.36c2.18,0,3-2,3-4.36,0-1.57-.72-2.47-2-2.47-1.81,0-3,2.18-3,4.15,0,1.46.72,2.64,2.05,2.64Z"/><path class="cls-1" d="M158.15,198.64l-.83,2.75a7.31,7.31,0,0,0-3.08-.68c-1.2,0-1.81.42-1.81,1.07s.52.77,1.92,1.31c2.18.83,2.9,1.7,2.9,3,0,2.84-2.18,4.57-5.5,4.57a15.64,15.64,0,0,1-4.36-.64l.76-2.88a7.26,7.26,0,0,0,3.14.72c1.38,0,2.19-.37,2.19-1.09s-.66-.94-2-1.44a3.37,3.37,0,0,1-2.6-3.43c0-2.64,2.71-4,5.63-4A11.39,11.39,0,0,1,158.15,198.64Z"/><path class="cls-1" d="M170.07,198.09l1,7.69h0l3.8-7.69H179l-7.29,13.65c-1.22,2.31-2.49,3.66-4.93,3.66a8.83,8.83,0,0,1-3.06-.43l.83-3.08a5,5,0,0,0,1.75.35c1.18,0,1.85-.87,2.18-2L166,198.09Z"/><path class="cls-1" d="M200.23,194.51l-.94,3.37a6.52,6.52,0,0,0-3.73-1,5.56,5.56,0,0,0-5.68,5.41,4.1,4.1,0,0,0,0,.7,3.82,3.82,0,0,0,3.21,4.34,3.48,3.48,0,0,0,.91,0,7.77,7.77,0,0,0,3.78-.92l-.44,3.52a13.52,13.52,0,0,1-4,.63,7.07,7.07,0,0,1-7.58-6.53,9.55,9.55,0,0,1,0-1.07,8.74,8.74,0,0,1,8.14-9.29,8.51,8.51,0,0,1,1,0A14.55,14.55,0,0,1,200.23,194.51Z"/><path class="cls-1" d="M212.46,203.29a6.55,6.55,0,0,1-7.27,7.27,5.2,5.2,0,0,1-5.81-4.51,5.57,5.57,0,0,1,0-1.08,6.79,6.79,0,0,1,6.39-7.16,5.75,5.75,0,0,1,.83,0,5.29,5.29,0,0,1,5.85,4.65A5.76,5.76,0,0,1,212.46,203.29Zm-7,4.36c2.18,0,3-2,3-4.36,0-1.57-.74-2.47-2.05-2.47-1.79,0-3,2.18-3,4.15,0,1.46.74,2.64,2.07,2.64Z"/><path class="cls-1" d="M226.54,202a12.46,12.46,0,0,1-.31,2.58l-1,5.67h-4l1.07-5.69a10.55,10.55,0,0,0,.26-1.86,1.31,1.31,0,0,0-1.21-1.4h-.23c-2.18,0-2.79,2.56-2.9,3.13l-1.14,5.82H213.2l1.7-8.73a33,33,0,0,0,.5-3.38H219l-.31,2h0a5.09,5.09,0,0,1,4.37-2.19C225.25,197.81,226.54,199.53,226.54,202Z"/><path class="cls-1" d="M238.11,198.64l-.81,2.75a7.37,7.37,0,0,0-3.1-.68c-1.2,0-1.79.42-1.79,1.07s.5.77,1.9,1.31c2.18.83,2.92,1.7,2.92,3,0,2.84-2.18,4.57-5.5,4.57a15.64,15.64,0,0,1-4.36-.64l.78-2.88a7.17,7.17,0,0,0,3.12.72c1.38,0,2.19-.37,2.19-1.09s-.68-.94-2-1.44a3.37,3.37,0,0,1-2.6-3.43c0-2.64,2.7-4,5.65-4A11.32,11.32,0,0,1,238.11,198.64Z"/><path class="cls-1" d="M241.25,201h-2.18l.58-2.95h2.19l.52-2.64,4.11-1.18-.77,3.82h2.71l-.59,2.95h-2.71l-.87,4.56a5.13,5.13,0,0,0,0,1c0,.88.37,1.2,1.22,1.2a7.17,7.17,0,0,0,1.22-.17l-.41,2.75a17,17,0,0,1-2.47.22c-2.46,0-3.51-1.09-3.51-3.19a11,11,0,0,1,.17-1.72Z"/><path class="cls-1" d="M258.3,198.12l-.88,3.71a2.58,2.58,0,0,0-1.76-.51c-1.58,0-2.52,1.36-2.86,3.13l-1.14,5.82H247.8l1.7-8.73c.15-.87.39-2.18.5-3.38h3.6l-.43,2.49h0a4,4,0,0,1,3.45-2.77A3.72,3.72,0,0,1,258.3,198.12Z"/><path class="cls-1" d="M263.34,198.09l-1.07,5.7a9.5,9.5,0,0,0-.26,1.83,1.31,1.31,0,0,0,1.19,1.43h.25c1.88,0,2.64-1.74,2.9-3.1l1.14-5.85h3.86l-1.72,9c0,.54-.35,1.88-.48,3.16h-3.58l.28-2h0a5.11,5.11,0,0,1-4.37,2.18c-2.18,0-3.51-1.7-3.51-4.21a14.13,14.13,0,0,1,.35-2.82l1-5.43Z"/><path class="cls-1" d="M282.92,198.64l-.83,2.92a5.69,5.69,0,0,0-2.49-.65c-2.18,0-3.43,1.51-3.43,3.93a2.58,2.58,0,0,0,2.49,2.66h.22a5.7,5.7,0,0,0,2.47-.54l-.57,3.16a9.56,9.56,0,0,1-3.27.46,5.24,5.24,0,0,1-5.34-5.14c0-.14,0-.29,0-.43a7,7,0,0,1,6.83-7.18h.37A9.83,9.83,0,0,1,282.92,198.64Z"/><path class="cls-1" d="M293.66,198.64l-.83,2.92a5.71,5.71,0,0,0-2.51-.74c-2.18,0-3.43,1.51-3.43,3.93a2.57,2.57,0,0,0,2.49,2.66h.2a5.57,5.57,0,0,0,2.48-.54L291.5,210a9.49,9.49,0,0,1-3.3.46,5.2,5.2,0,0,1-5.31-5.12,3.27,3.27,0,0,1,0-.44,7,7,0,0,1,6.82-7.19h.38A10,10,0,0,1,293.66,198.64Z"/><path class="cls-1" d="M299.77,198.09l-2.34,12.18h-3.9l2.33-12.18Zm1-5.08-.61,3.08h-3.91l.62-3.08Z"/><path class="cls-1" d="M313.85,203.29a6.54,6.54,0,0,1-5.74,7.26,6.75,6.75,0,0,1-1.49,0,5.17,5.17,0,0,1-5.8-5.59,6.79,6.79,0,0,1,6.39-7.16,5.48,5.48,0,0,1,.81,0,5.29,5.29,0,0,1,5.81,4.7A6.77,6.77,0,0,1,313.85,203.29Zm-7,4.36c2.19,0,3-2,3-4.36,0-1.57-.73-2.47-2-2.47-1.82,0-3,2.18-3,4.15,0,1.46.79,2.64,2.05,2.64Z"/><path class="cls-1" d="M328,202a12.45,12.45,0,0,1-.3,2.58l-1,5.67h-4l1.09-5.69a10.56,10.56,0,0,0,.27-1.86,1.31,1.31,0,0,0-1.22-1.4h-.22c-2.19,0-2.8,2.56-2.91,3.13l-1.13,5.82h-3.89l1.7-8.73a32.31,32.31,0,0,0,.53-3.38h3.58l-.31,2h0a5.1,5.1,0,0,1,4.37-2.19C326.66,197.81,328,199.53,328,202Z"/><path class="cls-1" d="M341.31,203a15,15,0,0,1-.26,2.32H333.1c0,1.4.74,2.36,3,2.36a8.21,8.21,0,0,0,3.54-.86l-.5,3a12.7,12.7,0,0,1-3.91.68,5.35,5.35,0,0,1-5.76-4.91,5,5,0,0,1,0-.77,6.79,6.79,0,0,1,6.59-7h.11a4.75,4.75,0,0,1,5.15,4.33A4.12,4.12,0,0,1,341.31,203Zm-3.21,0c0-1.35-.5-2.42-1.92-2.42a2.93,2.93,0,0,0-2.84,2.42Z"/><path class="cls-1" d="M352.64,198.64l-.83,2.75a7.28,7.28,0,0,0-3.08-.68c-1.2,0-1.81.42-1.81,1.07s.52.77,1.92,1.31c2.18.83,2.93,1.7,2.93,3,0,2.84-2.19,4.57-5.5,4.57a15.77,15.77,0,0,1-4.37-.64l.76-2.88a7.3,7.3,0,0,0,3.15.72c1.37,0,2.18-.37,2.18-1.09s-.66-.94-2-1.44a3.37,3.37,0,0,1-2.6-3.43c0-2.64,2.71-4,5.66-4A11.42,11.42,0,0,1,352.64,198.64Z"/><path class="cls-1" d="M86.16,153H104c14.73,0,25.82,4.36,25.82,14.8,0,14.21-11.68,21.95-32.39,21.95H75.35Zm5.1,29.49h6c12.71,0,18.47-6.75,18.47-14.06,0-4.63-2.84-8.17-14.23-8.17H97.68Z"/><path class="cls-1" d="M157,153l-10.58,36.75H132.72L143.28,153Z"/><path class="cls-1" d="M201.17,154l-3.29,7.31a34.35,34.35,0,0,0-11.25-1.68c-5.45,0-9.82.59-9.82,3.54,0,2.18,3.21,3.05,7.66,4.36,5.85,1.68,12.12,3.78,12.12,10.11,0,9.36-11.24,12.79-24.8,12.79a77,77,0,0,1-15.85-1.9l3.21-7.46a35.81,35.81,0,0,0,12.55,2.18c6.94,0,10.92-1.48,10.92-4.37s-3.71-3.64-8.73-5c-6.23-1.75-11.12-3.8-11.12-9.13,0-7.94,8.54-12.27,22.77-12.27A56.28,56.28,0,0,1,201.17,154Z"/><path class="cls-1" d="M253.69,154.31l-3.21,7.53a31.1,31.1,0,0,0-12.62-2.19c-13.7,0-19.18,7-19.18,13.91,0,6.11,5.11,9.58,14,9.58a38.37,38.37,0,0,0,12.84-2l-1.47,7.9a67.23,67.23,0,0,1-13.57,1.42c-16.11,0-25.83-6.79-25.83-17.11,0-12.16,11.75-20.92,31.09-20.92A71.24,71.24,0,0,1,253.69,154.31Z"/><path class="cls-1" d="M305,167.42c0,14.39-10.81,23-29.77,23-15.28,0-22.64-6.55-22.64-15,0-14.21,10.59-23,29.77-23C297.92,152.36,305,159,305,167.42Zm-28.9,15.7A14.67,14.67,0,0,0,291,168.68v-.6c0-3.21-1.18-8.54-9.57-8.54a14.72,14.72,0,0,0-14.82,14.6v.49C266.61,180,269.76,183.12,276.11,183.12Z"/><path class="cls-1" d="M334.19,153l10.44,25.49h.26L352,153h12.85L354,189.75H337l-10.65-25.43h-.15l-7.08,25.43H306.32L317.23,153Z"/><path class="cls-1" d="M334,143c-34,0-82-7.34-127.41-18.35-43.56-10.56-83.69-24-113-37.91-21.36-10.12-46.17-24.91-43-37.89s32-14.78,55.6-14c32.4,1.08,74.23,7.49,117.8,18,79.85,19.36,161.66,52.51,156,75.81C377.58,138.8,359.83,143,334,143ZM97.18,39.1C72.13,39.1,56.52,43,54.85,49.9,53,57.58,68.19,69.89,95.5,82.83c29,13.76,68.86,27.12,112.14,37.61,96,23.27,164.43,22.56,168.13,7.28S319,80.46,223,57.18C179.7,46.69,138.17,40.32,106.06,39.25,103,39.15,100,39.1,97.18,39.1Z"/><path class="cls-1" d="M154.65,66.6l192.42,52.1S357.83,45.84,436.57,0C436.57,0,301.47,68.65,154.65,66.6Z"/><path class="cls-1" d="M90.13,59.35l189.71,49.51S107.83,113.05,0,178.67C0,178.67,73.58,130.27,90.13,59.35Z"/></svg>