<svg id="Capa_1" data-name="Capa 1" xmlns="http://www.w3.org/2000/svg" viewBox="0 0 534.64 45.14"><defs><style>.cls-1{fill:gray;}</style></defs><path class="cls-1" d="M23.67,16.88,37.82.57h9.53v44h-11V17.11L24.49,30.9H22.85L11,17.11V44.57H0V.57H9.52Z"/><path class="cls-1" d="M80.42,0Q91.67,0,98.63,6.79a21.4,21.4,0,0,1,7,15.8,21.15,21.15,0,0,1-7,15.84q-7.07,6.7-18.12,6.71t-18.2-6.68a21.14,21.14,0,0,1-7-15.87,21.39,21.39,0,0,1,7-15.82Q69.14,0,80.42,0Zm0,36a13.8,13.8,0,0,0,10-3.71,12.91,12.91,0,0,0,3.81-9.71,12.93,12.93,0,0,0-3.81-9.74,13.87,13.87,0,0,0-10-3.68,14,14,0,0,0-10.09,3.68,12.91,12.91,0,0,0-3.83,9.74,12.89,12.89,0,0,0,3.83,9.71A13.89,13.89,0,0,0,80.42,36Z"/><path class="cls-1" d="M113.53.57h19.66a14.67,14.67,0,0,1,10.39,3.7,11.73,11.73,0,0,1,4,9q0,7.28-7.56,10.77,3.31,1.5,6.3,8.12t5.77,12.46h-12c-.72-1.44-2-4.21-3.75-8.28s-3.32-6.69-4.59-7.84a6,6,0,0,0-4.08-1.74h-3.15V44.57h-11Zm11,8.06v10h5.8a6.8,6.8,0,0,0,4.39-1.31,4.49,4.49,0,0,0,1.63-3.73q0-5-6.27-5Z"/><path class="cls-1" d="M189.76,36.51v8.06H157.32V.57h32V8.63h-21v9.23h20.07v8.07H168.28V36.51Z"/><path class="cls-1" d="M231.69,36.51v8.06H198.14V.57h11V36.51Z"/><path class="cls-1" d="M278.85,31.15v9.61a36.4,36.4,0,0,1-17.29,4.38q-11.73,0-18.67-6.47a21,21,0,0,1-6.94-16,20.88,20.88,0,0,1,7.32-16.09Q250.59,0,262.41,0q9.42,0,15.94,3.87v9.8q-8-4.5-15.16-4.5t-11.48,3.76a12,12,0,0,0-4.46,9.59,12.24,12.24,0,0,0,4.4,9.67A16.52,16.52,0,0,0,262.91,36a23.71,23.71,0,0,0,6.55-.9A63.72,63.72,0,0,0,278.85,31.15Z"/><path class="cls-1" d="M310.92,0q11.25,0,18.21,6.79a21.4,21.4,0,0,1,7,15.8A21.13,21.13,0,0,1,329,38.43q-7,6.7-18.11,6.71t-18.21-6.68a21.16,21.16,0,0,1-7-15.87,21.38,21.38,0,0,1,7-15.82Q299.65,0,310.92,0Zm0,36A13.8,13.8,0,0,0,321,32.3a12.91,12.91,0,0,0,3.81-9.71A12.93,12.93,0,0,0,321,12.85a15.63,15.63,0,0,0-20.15,0A12.9,12.9,0,0,0,297,22.59a12.88,12.88,0,0,0,3.82,9.71A13.91,13.91,0,0,0,310.92,36Z"/><path class="cls-1" d="M391.81,3.4V12C386,9.38,381.32,8.06,377.86,8.06a9.58,9.58,0,0,0-4.71,1,3,3,0,0,0-1.75,2.63,3.23,3.23,0,0,0,1.26,2.39c.84.76,2.89,1.73,6.14,2.93a67.26,67.26,0,0,1,7.82,3.34,15.16,15.16,0,0,1,5.05,4.35,11.37,11.37,0,0,1,2.13,7.08,11.71,11.71,0,0,1-4.65,9.74q-4.63,3.61-12.24,3.62A32.41,32.41,0,0,1,361,40.89V31.41a43,43,0,0,0,7.81,4.31,19.18,19.18,0,0,0,7.21,1.36c4.31,0,6.46-1.36,6.46-4.06a3.6,3.6,0,0,0-1.29-2.62c-.86-.81-2.94-1.81-6.22-3a62.72,62.72,0,0,1-7.82-3.27,14.68,14.68,0,0,1-5-4.32,11.66,11.66,0,0,1-2.1-7.19,11,11,0,0,1,4.57-9.15Q369.27,0,376.91,0A37.39,37.39,0,0,1,391.81,3.4Z"/><path class="cls-1" d="M399.09,39.53a5.65,5.65,0,0,1,5.61-5.6,5.43,5.43,0,0,1,4,1.65,5.55,5.55,0,0,1,0,7.92,5.61,5.61,0,0,1-7.93,0A5.35,5.35,0,0,1,399.09,39.53Z"/><path class="cls-1" d="M444.15.57l19.55,44H451.91l-3.62-8.69H428.58l-3.29,8.69H413.68l17.77-44Zm.93,27.62L438,11.09l-6.47,17.1Z"/><path class="cls-1" d="M467,39.53a5.62,5.62,0,1,1,1.65,4A5.39,5.39,0,0,1,467,39.53Z"/><path class="cls-1" d="M516.12,3.4V12q-8.76-3.93-14-3.94a9.58,9.58,0,0,0-4.71,1,3,3,0,0,0-1.74,2.63A3.23,3.23,0,0,0,497,14.08c.84.76,2.88,1.73,6.14,2.93a67,67,0,0,1,7.81,3.34A15.29,15.29,0,0,1,516,24.7a11.37,11.37,0,0,1,2.12,7.08,11.7,11.7,0,0,1-4.64,9.74q-4.65,3.61-12.24,3.62a32.47,32.47,0,0,1-15.88-4.25V31.41a43.34,43.34,0,0,0,7.81,4.31,19.23,19.23,0,0,0,7.22,1.36c4.3,0,6.46-1.36,6.46-4.06a3.58,3.58,0,0,0-1.3-2.62q-1.29-1.21-6.22-3a61.84,61.84,0,0,1-7.81-3.27,14.81,14.81,0,0,1-5-4.32,11.72,11.72,0,0,1-2.09-7.19A11,11,0,0,1,489,3.48Q493.56,0,501.22,0A37.46,37.46,0,0,1,516.12,3.4Z"/><path class="cls-1" d="M523.4,39.53a5.62,5.62,0,1,1,1.65,4A5.39,5.39,0,0,1,523.4,39.53Z"/></svg>