<svg id="Capa_1" data-name="Capa 1" xmlns="http://www.w3.org/2000/svg" viewBox="0 0 232.31 363.28"><defs><style>.cls-1{fill:gray;}</style></defs><path class="cls-1" d="M116.07,363.28H99.63a25.73,25.73,0,0,1-26.1-25.85,2.55,2.55,0,0,0-2-2.85,20.81,20.81,0,0,1-12.15-27.2,1.54,1.54,0,0,0-.73-2.27,20.78,20.78,0,0,1,.21-35.06,2,2,0,0,0,1-2.7A233.66,233.66,0,0,0,45.4,228.43C36.45,209.19,26,190.8,15,172.68c-6.33-10.45-10.2-21.84-12.63-33.76A111,111,0,0,1,.05,113.27,116.3,116.3,0,0,1,60.81,14,112.36,112.36,0,0,1,103.41.7c24.18-2.55,47.14,1.93,68.81,12.65A101.8,101.8,0,0,1,217.84,58a124.27,124.27,0,0,1,13.39,42.3c3.17,24.23-.61,47.36-12,69.07-3.26,6.24-7.22,12.1-10.75,18.19-11.32,19.56-21.93,39.49-29.94,60.68a197,197,0,0,0-6.09,19,2.24,2.24,0,0,0,1.09,2.9c12.8,8.46,12.85,26.36.12,35-.95.63-1.21,1.1-.76,2.26A20.84,20.84,0,0,1,160.5,334.7a2.2,2.2,0,0,0-1.7,2.42c-.22,13.63-9,23.82-22.45,26a17.91,17.91,0,0,1-2.84.18Zm.08-96.5c13.14,0,26.28,0,39.42,0,1.77,0,2.39-.64,2.79-2.25a188.56,188.56,0,0,1,7.47-23.3c7.86-20.34,18-39.58,28.82-58.45,4-7,8.54-13.67,12.23-20.82,11.14-21.61,13.53-44.51,8.66-68.15a103.78,103.78,0,0,0-14.76-36.47A87.06,87.06,0,0,0,167.24,27C147,16.64,125.47,12.42,102.75,15.3A99,99,0,0,0,56.5,33.7,100.38,100.38,0,0,0,24.46,72a99.45,99.45,0,0,0-9.82,37.56,101.62,101.62,0,0,0,1.65,25.87c2,10,5,19.69,10.21,28.43,11.8,19.67,23.24,39.52,32.81,60.38A232,232,0,0,1,74,264.71c.41,1.62,1.09,2.11,2.73,2.1C89.87,266.75,103,266.78,116.15,266.78Zm-.07,27.28h44.79c.73,0,1.46,0,2.18-.05a6.42,6.42,0,0,0,5.62-5,6.53,6.53,0,0,0-2.89-6.82,8.51,8.51,0,0,0-4.66-1.1H71c-.44,0-.89,0-1.34,0a6.51,6.51,0,0,0-5.56,9.16c1.23,2.78,3.51,3.81,6.49,3.81C85.78,294,100.93,294.06,116.08,294.06Zm.06,27.44h12.41c8.33,0,16.67,0,25,0a6.44,6.44,0,0,0,6-8.81c-1-2.6-3.45-4.11-6.85-4.11H79.43c-.39,0-.79,0-1.18,0a6.47,6.47,0,0,0,.65,12.91C91.31,321.52,103.73,321.5,116.14,321.5Zm.21,14.51c-8.77,0-17.54,0-26.31,0-1.64,0-2.12.55-2.05,2.15a11.33,11.33,0,0,0,11.14,10.81q17,.15,34,0a11.27,11.27,0,0,0,11.15-10.77c.07-2,0-2.15-2.14-2.15Z"/><path class="cls-1" d="M62.27,122.52c4.58.08,9.51,2.55,13.7,6.82,6.61,6.74,13.34,13.37,20,20.09.91.93,1.42.79,2.28-.07q15.66-15.72,31.39-31.4c7.69-7.71,15.31-15.49,23.06-23.14,2.3-2.27,4.39-4.79,7.08-6.64,6.35-4.39,13.19-5.22,20.19-2a20.23,20.23,0,0,1,5.95,32.78q-27.49,27.52-55,55-9.72,9.72-19.44,19.43a20,20,0,0,1-28.85-.07Q64.5,175.25,46.42,157.15a20.12,20.12,0,0,1-4.5-22C45.17,127.39,52.44,122.52,62.27,122.52ZM97.45,185a4.75,4.75,0,0,0,3.79-1.69c2.75-2.78,5.53-5.54,8.29-8.3q30.18-30.18,60.36-60.36A69.06,69.06,0,0,0,176.3,108a5.62,5.62,0,0,0-.72-7.72,5.89,5.89,0,0,0-8.07.12c-.89.85-1.75,1.73-2.62,2.6l-30.45,30.47c-10.43,10.43-20.9,20.83-31.3,31.3-4,4-8,4.13-12.06.08q-13-13-26-26c-2.56-2.55-6-2.63-8.5-.21a5.67,5.67,0,0,0,.06,8.38q18,18.12,36.15,36.18A6,6,0,0,0,97.45,185Z"/></svg>