<svg id="Capa_1" data-name="Capa 1" xmlns="http://www.w3.org/2000/svg" viewBox="0 0 375.67 356.83"><defs><style>.cls-1{fill:gray;}</style></defs><path class="cls-1" d="M115.05,244.25C51.51,244.26,0,192.79,0,129.4S51.73,14.29,115,14.29,230,66,230,129.37A114.65,114.65,0,0,1,115.05,244.25Zm-96-115.17c-.06,53.38,42.68,96.58,95.63,96.64,53.11.07,96.91-43.34,96.63-96.48-.3-55.41-45.87-96.17-96-96C61.86,33.52,19.13,75.68,19.07,129.08Z"/><path class="cls-1" d="M375.49,227.39c-.36,38.84-16,70.52-47.47,93.06a114.12,114.12,0,0,1-141.13-5.74c-16.38-13.93-27.76-31.17-34.91-51.38-1.53-4.33-1.08-6.85,3.85-7.94,3.86-.85,8.09-4,11.23-3,3.55,1.07,3.17,6.81,4.7,10.43,20.73,49,73.14,72.83,122.86,54.16,35.34-13.28,56.72-39.73,61.61-77.5,5.08-39.28-10.18-70.38-42.4-92.79-17.28-12-37-17.08-58.17-15.54-8,.58-8,.61-8.19-7.5,0-.16,0-.33,0-.5-.35-11-.35-11,11.1-11.1,60.51-.64,109.88,42.57,116.88,102.43C375.92,218.69,375.49,223.06,375.49,227.39Z"/><path class="cls-1" d="M237.91,242.05c1.33,0,2.66.06,4,0,5.15-.26,9.16.11,9.58,7.14.3,5,5.58,7.69,11.29,7.65,4.57,0,7.1-2.39,8.16-6.57s-1.09-8.55-5.93-10.89c-6.13-3-12.54-5.35-18.69-8.26-15.77-7.47-21.88-22.88-14.75-37A23.74,23.74,0,0,1,244.94,182c4.36-1.55,5.79-3.86,5.66-8.4-.27-9,3.25-12.1,12-11.46,5.76.42,9.34,3.42,9,9.15-.36,6.13,2.13,8.41,7.66,10.41,10.86,3.93,16.09,12.77,17.53,24,.48,3.75-.81,5.62-4.86,5.48-5.15-.18-10.31-.12-15.46,0-3.18.07-5-.94-5.19-4.45-.19-3-1.24-5.86-3.95-7.72A8.31,8.31,0,0,0,256,210.92c2.4,3.18,5.88,4.82,9.43,6.27A138.48,138.48,0,0,1,282.12,225c9.83,5.67,15,14.19,14.38,25.45-.69,11.93-7.68,19.66-18.82,23.22-4.38,1.4-6.15,3.2-6,7.94.19,6.43-3.81,9.3-11.49,9.2-6.33-.09-9.91-3.18-9.59-9.45.27-5.11-1.77-7.18-6.39-8.8-11.52-4-17.36-12.75-18.71-24.72-.42-3.78.33-6.19,4.94-5.65a64.14,64.14,0,0,0,7.47.05Z"/><path class="cls-1" d="M135.12,356.82c-5.59-.15-10.62-6.15-8.83-11.41,1.43-4.23-.4-4.2-3.54-4.49A112.53,112.53,0,0,1,22.62,252.33c-1.64-7.78.79-12.64,7.05-14.09,5.95-1.37,10.91,2.35,12.72,9.61C51.92,286,76,309.53,114,319c1,.24,2,.36,2.93.56,3.66.76,6.23,1.36,6.11-4.45-.14-6.86,6.07-10.26,12.36-7.29q13.08,6.16,25.73,13.21c6,3.34,6.86,10.58,1.71,15.12-7.59,6.71-15.61,12.94-23.48,19.32A6.15,6.15,0,0,1,135.12,356.82Z"/><path class="cls-1" d="M354.24,108.26c-.24,4.68-2,8.2-6.58,9.72a10.15,10.15,0,0,1-11.83-4.11c-1.83-2.69-2.35-5.84-3.06-8.91C324.79,70.55,293,41.5,258,36.63c-3-.41-4.64-.6-4.5,3.67.24,6.63-6.35,12.51-13.89,8.07s-15.33-8-23-12-8.54-11.64-1.8-17.14C221.37,13.85,228,8.54,234.43,3.05c3.37-2.87,6.88-4.18,10.91-1.85s5.79,6,4.63,10.57c-1.4,5.51,3.22,3.84,5.17,4.05A110.59,110.59,0,0,1,297.22,29c29.78,16.44,48.39,41.4,56.24,74.44C353.84,105.09,354,106.75,354.24,108.26Z"/><path class="cls-1" d="M124.16,85.06c0,10.13.21,20.28-.1,30.4a13.39,13.39,0,0,0,4.62,10.89c9.34,9,18.42,18.24,27.55,27.43,5,5,5,8.48.27,13.17s-8.73,4.77-13.67-.16C131.54,155.53,120.3,144.2,109,133a10.38,10.38,0,0,1-3.36-7.93c.08-24.42,0-48.85.05-73.28,0-6.7,2.25-8.74,9.14-8.76s9.27,2.06,9.33,8.64c.09,11.13,0,22.26,0,33.4Z"/></svg>