<svg id="Capa_1" data-name="Capa 1" xmlns="http://www.w3.org/2000/svg" viewBox="0 0 423.87 383.4"><defs><style>.cls-1{fill:gray;}</style></defs><path class="cls-1" d="M281.3,383.4h-.49c-31.93-.16-64.4-.13-95.81-.11q-23,0-45.94,0a67.13,67.13,0,0,1-7.9-.46c-18.7-2.21-33.6-10.59-44.28-24.91a147.4,147.4,0,0,1-10.2-16.45c-1-1.84-2.06-3.68-3.12-5.5q-11.07-19.07-22.11-38.14c-13.41-23.16-27.28-47.12-41-70.59-13.89-23.7-13.88-47.64,0-71.15,7.05-11.93,14.08-24.16,20.88-36q5.73-10,11.5-20,5.56-9.6,11.09-19.23C63.36,64.5,73.14,47.5,83.14,31,95.28,10.91,114.46.25,138.62.13,172.52,0,207,0,240.31,0q22.53,0,45.05,0h0a60,60,0,0,1,15.55,2c17.75,4.75,31.26,15.06,40.18,30.64,5.25,9.19,10.69,18.51,15.95,27.52,5.37,9.21,10.93,18.73,16.32,28.16.46.8,1,1.65,1.59,2.56,1.93,3,4.32,6.64,5.15,11.48a8,8,0,0,1-15.77,2.7c-.27-1.58-1.44-3.38-2.79-5.47-.68-1-1.39-2.13-2.07-3.33-5.36-9.37-10.9-18.86-16.25-28s-10.73-18.38-16-27.63c-6.81-11.91-16.77-19.48-30.43-23.14a44.43,44.43,0,0,0-11.41-1.45h0q-22.53,0-45.06,0c-33.31,0-67.75-.06-101.6.11-18.56.09-32.64,7.87-41.87,23.12-9.91,16.38-19.64,33.3-29.06,49.66q-5.55,9.65-11.11,19.27-5.77,9.94-11.48,19.92c-6.82,11.87-13.88,24.14-21,36.15-11,18.65-11,36.1,0,54.92C38,242.68,51.87,266.65,65.3,289.83q11,19.07,22.09,38.12c1.1,1.89,2.18,3.81,3.25,5.72a132,132,0,0,0,9.06,14.7c8,10.66,19.17,16.92,33.34,18.59a52.61,52.61,0,0,0,6,.35q23,0,45.92,0c31.43,0,63.93-.05,95.9.11h.43c22,0,37.28-8.86,47.95-27.85,9.27-16.51,19-33.13,28.3-49.2q6.54-11.24,13.07-22.5l7-12.12c7.92-13.7,16.12-27.86,24.07-41.84,2-3.54,3.08-7.84,4.21-12.4.47-1.88,1-3.83,1.53-5.8.85-2.93.24-5.88-.53-9.62-.34-1.63-.68-3.32-.93-5.14-.65-4.7-2.84-9.28-5.92-14.71C393.7,155,386.81,143,379.65,131.32a24.65,24.65,0,0,1-3.25-10.95l0-.18a8,8,0,0,1,15.9-1.78l0,.19c.25,2.26.4,3.39,1,4.36,7.28,11.89,14.25,24,20.7,35.35,3.46,6.09,6.81,12.78,7.86,20.45.18,1.29.45,2.65.75,4.08,1,4.71,2.17,10.57.23,17.29-.49,1.68-.92,3.4-1.37,5.23-1.34,5.4-2.73,11-5.84,16.44-8,14-16.18,28.22-24.12,41.94l-7,12.12Q378,287.14,371.4,298.4c-9.33,16-19,32.58-28.18,49C329.8,371.29,309,383.4,281.3,383.4Z"/><path class="cls-1" d="M219.57,309c-7.25,0-14.28-.05-21.19-.13-20.39-.26-37.08-8.44-49.59-24.29C136,268.36,129.49,249,129.43,226.89q0-8,0-16v-7.3a8,8,0,0,1,16,0v7.31q0,8,0,16c0,18.66,5.26,34.3,15.92,47.81,9.51,12.05,21.69,18,37.24,18.21,13.65.17,27.8.17,43.24,0,12.43-.14,21.87-4.07,28.88-12,5.18-5.88,9.06-13.32,11.86-22.73a132.6,132.6,0,0,0,5.11-35.88c.17-9.22,1.9-17,5.31-23.86,3.09-6.21-.88-10.6-3.52-12.66-2.11-1.64-8.57-1.94-11.23.65a26.12,26.12,0,0,1-9.93,5.94,8,8,0,1,1-5.24-15.12,10.47,10.47,0,0,0,4-2.26c8.8-8.59,24.29-8,32.26-1.82,10.55,8.24,13.69,21,8,32.4-2.32,4.66-3.51,10.22-3.63,17a148.89,148.89,0,0,1-5.77,40.16c-3.47,11.68-8.44,21.09-15.2,28.75-10,11.38-23.72,17.25-40.7,17.44C234.24,308.94,226.79,309,219.57,309Z"/><path class="cls-1" d="M218.37,267.18a9.32,9.32,0,0,1-1.28-.1,8,8,0,0,1-6.63-9.17c2.84-17.7,12.4-30.57,28.41-38.26A51.67,51.67,0,0,1,251,215.91a184.52,184.52,0,0,1,3.75-19.8c.76-3.32,1.48-6.48,2.11-9.66A24.25,24.25,0,0,1,254,174.07c0-6.74,0-13.62,0-20.26,0-11.62-.08-23.63.16-35.49a8.24,8.24,0,0,0-3.83-6.89,6.42,6.42,0,0,0-6.51-.47l-.32.15a13.72,13.72,0,0,1-4.17,1.58,16.32,16.32,0,0,0-.42,4.15v78.94a8,8,0,0,1-16,0V116.85c0-5.49,1-9.84,3.11-13.67,2.63-4.73,7.28-5.62,9.27-6l.49-.09a10.54,10.54,0,0,1,1-.48l.1,0A22.55,22.55,0,0,1,258.92,98a24.2,24.2,0,0,1,11.18,20.68c-.23,11.67-.19,23.59-.15,35.11,0,6.68,0,13.59,0,20.39a8.32,8.32,0,0,0,.87,4.52,12.41,12.41,0,0,1,2,9.62c-.73,3.86-1.6,7.69-2.45,11.39-1.61,7.06-3.13,13.72-3.7,20.5a12,12,0,0,1-10,10.94l-.66.13a43.62,43.62,0,0,0-10.17,2.84c-11.16,5.35-17.55,14-19.53,26.36A8,8,0,0,1,218.37,267.18Zm25.35-156.24h0Z"/><path class="cls-1" d="M199.71,205a8,8,0,0,1-8-8V178.55c0-17.69,0-36,.06-54a35.89,35.89,0,0,0-1.4-10.39l-.06-.16a10.51,10.51,0,0,1,1-9.76c.59-.92.49-3.35.45-4.27a23.24,23.24,0,0,1,8-19c7.53-6.6,16.42-8,25-4s13.54,11,14,19.88a9.35,9.35,0,0,0,1.3,4.72,8,8,0,0,1-13.52,8.56,25.12,25.12,0,0,1-3.76-12.44c-.1-2-.75-4.35-4.76-6.21-2.41-1.12-4.55-1.25-7.75,1.55a7.19,7.19,0,0,0-2.57,6.36A24.5,24.5,0,0,1,206,110.63a52.14,52.14,0,0,1,1.78,14c-.09,18-.07,36.21-.06,53.88V197A8,8,0,0,1,199.71,205Z"/><path class="cls-1" d="M168.57,210.73a8,8,0,0,1-8-8v-49.9a16.32,16.32,0,0,0-.42-4.15,13.91,13.91,0,0,1-4-1.47,9.1,9.1,0,0,0-7.81.94,7.59,7.59,0,0,0-2.92,6.39c-.06,7,0,14.05,0,20.91q0,4.63,0,9.29a8,8,0,0,1-16,0c0-3.09,0-6.17,0-9.26,0-6.9,0-14,0-21.08A23.55,23.55,0,0,1,139,135.18c6.28-4.54,14.52-5.64,22.6-3a11.31,11.31,0,0,1,2.12,1l.47.09c2,.38,6.64,1.26,9.27,6,2.13,3.84,3.12,8.18,3.11,13.67v49.89A8,8,0,0,1,168.57,210.73Zm-11.88-63.36h0Z"/><path class="cls-1" d="M166.1,149.8a8,8,0,0,1-6.63-12.46,7.71,7.71,0,0,0,1.13-5c-.13-3.27-.13-6.65,0-10a23.86,23.86,0,0,1,10.11-19.11c6.2-4.24,14.15-5.15,21.81-2.5a32.52,32.52,0,0,0,3.74.92c.81.17,1.62.34,2.43.53A8,8,0,0,1,195,117.68l-2-.43a45.53,45.53,0,0,1-5.75-1.47c-2.86-1-5.53-.78-7.53.59a7.93,7.93,0,0,0-3.16,6.5c-.11,3-.11,5.93,0,8.78a23.49,23.49,0,0,1-3.84,14.6A8,8,0,0,1,166.1,149.8Z"/><path class="cls-1" d="M283.75,350.63h0q-55.38,0-110.74,0H139.47a40.49,40.49,0,0,1-10.19-1.39c-12.11-3.1-17.45-12.35-21.74-19.78l-15-25.93C75,273,56.75,241.42,38.64,210.51c-7.57-12.91-7.54-25.26.08-37.76C45,162.55,51,152,56.91,141.71q3.59-6.26,7.21-12.52Q70.06,118.93,76,108.67c11-19,22.44-38.61,33.47-58,5.87-10.32,14.49-16.32,25.62-17.83a8.25,8.25,0,0,1,1.3-.08H283.73a40.53,40.53,0,0,1,10.19,1.4c12.1,3.09,17.45,12.34,21.74,19.77l15,25.93c17.61,30.53,35.82,62.09,53.93,93,7.56,12.92,7.54,25.27-.09,37.76-6.39,10.48-12.63,21.35-18.66,31.87q-3.36,5.85-6.72,11.69-8.65,14.94-17.28,29.91c-9.51,16.48-19.35,33.51-29.06,50.25C306.57,345,296.54,350.63,283.75,350.63Zm-68.46-16q34.22,0,68.44,0h0c7.15,0,11.82-2.57,15.16-8.32,9.71-16.72,19.53-33.74,29-50.21q8.64-15,17.29-29.92,3.36-5.82,6.69-11.64C358,223.93,364.31,213,370.82,202.3c4.5-7.39,4.48-13.57-.07-21.34-18.14-31-36.36-62.54-54-93.09L301.8,62C297.92,55.22,295.27,51,290,49.67a25.11,25.11,0,0,0-6.23-.9h-147c-5.91.94-10,4-13.38,9.82C112.34,78,100.91,97.7,89.87,116.7Q83.92,127,78,137.22q-3.6,6.21-7.18,12.46c-5.93,10.33-12.06,21-18.4,31.41-4.51,7.38-4.49,13.57.06,21.33,18.14,31,36.37,62.55,54,93.09l15,25.93c3.89,6.73,6.54,10.92,11.85,12.27a24.65,24.65,0,0,0,6.23.9h75.82Z"/></svg>